<svg width="32" height="32" viewBox="0 0 32 32" fill="none" xmlns="http://www.w3.org/2000/svg">
<circle cx="16" cy="16" r="16" fill="#524894"/>
<path fill-rule="evenodd" clip-rule="evenodd" d="M13.2067 9.33325H18.794C20.8533 9.33325 22 10.5199 22 12.5533V19.4399C22 21.5066 20.8533 22.6666 18.794 22.6666H13.2067C11.18 22.6666 10 21.5066 10 19.4399V12.5533C10 10.5199 11.18 9.33325 13.2067 9.33325ZM13.3864 12.44V12.4333H15.3791C15.6664 12.4333 15.8997 12.6666 15.8997 12.9526C15.8997 13.2466 15.6664 13.48 15.3791 13.48H13.3864C13.0991 13.48 12.8664 13.2466 12.8664 12.96C12.8664 12.6733 13.0991 12.44 13.3864 12.44ZM13.3864 16.4933H18.6131C18.8997 16.4933 19.1331 16.2599 19.1331 15.9733C19.1331 15.6866 18.8997 15.4526 18.6131 15.4526H13.3864C13.0991 15.4526 12.8664 15.6866 12.8664 15.9733C12.8664 16.2599 13.0991 16.4933 13.3864 16.4933ZM13.3864 19.54H18.613C18.879 19.5133 19.0797 19.286 19.0797 19.02C19.0797 18.7466 18.879 18.52 18.613 18.4933H13.3864C13.1864 18.4733 12.993 18.5666 12.8864 18.74C12.7797 18.9066 12.7797 19.1266 12.8864 19.3C12.993 19.4666 13.1864 19.5666 13.3864 19.54Z" fill="white"/>
</svg>
