<svg width="32" height="32" viewBox="0 0 32 32" fill="none" xmlns="http://www.w3.org/2000/svg">
<circle cx="16" cy="16" r="16" fill="#524894"/>
<path fill-rule="evenodd" clip-rule="evenodd" d="M21.6015 17.0535C21.8399 17.1802 22.0239 17.3802 22.1533 17.5802C22.4054 17.9935 22.385 18.5002 22.1397 18.9468L21.6628 19.7468C21.4107 20.1735 20.9406 20.4402 20.4569 20.4402C20.2184 20.4402 19.9527 20.3735 19.7347 20.2402C19.5575 20.1268 19.3532 20.0868 19.1351 20.0868C18.4606 20.0868 17.8952 20.6402 17.8747 21.3002C17.8747 22.0668 17.2479 22.6668 16.4644 22.6668H15.5378C14.7475 22.6668 14.1207 22.0668 14.1207 21.3002C14.1071 20.6402 13.5416 20.0868 12.8671 20.0868C12.6423 20.0868 12.4379 20.1268 12.2676 20.2402C12.0496 20.3735 11.777 20.4402 11.5454 20.4402C11.0549 20.4402 10.5848 20.1735 10.3327 19.7468L9.86258 18.9468C9.6105 18.5135 9.59687 17.9935 9.84895 17.5802C9.95796 17.3802 10.1624 17.1802 10.394 17.0535C10.5848 16.9602 10.7074 16.8068 10.8232 16.6268C11.1639 16.0535 10.9595 15.3002 10.3804 14.9602C9.70588 14.5802 9.48786 13.7335 9.8762 13.0735L10.3327 12.2868C10.7278 11.6268 11.5727 11.3935 12.254 11.7802C12.8467 12.1002 13.6166 11.8868 13.964 11.3202C14.073 11.1335 14.1344 10.9335 14.1207 10.7335C14.1071 10.4735 14.1821 10.2268 14.3115 10.0268C14.5636 9.6135 15.0201 9.34683 15.5174 9.3335H16.478C16.9822 9.3335 17.4387 9.6135 17.6908 10.0268C17.8134 10.2268 17.8952 10.4735 17.8747 10.7335C17.8611 10.9335 17.9224 11.1335 18.0314 11.3202C18.3789 11.8868 19.1488 12.1002 19.7483 11.7802C20.4228 11.3935 21.2744 11.6268 21.6628 12.2868L22.1193 13.0735C22.5144 13.7335 22.2964 14.5802 21.6151 14.9602C21.036 15.3002 20.8316 16.0535 21.1791 16.6268C21.2881 16.8068 21.4107 16.9602 21.6015 17.0535ZM14.0732 16.0069C14.0732 17.0535 14.9384 17.8869 16.0081 17.8869C17.0777 17.8869 17.9225 17.0535 17.9225 16.0069C17.9225 14.9602 17.0777 14.1202 16.0081 14.1202C14.9384 14.1202 14.0732 14.9602 14.0732 16.0069Z" fill="white"/>
</svg>
