<svg width="32" height="32" viewBox="0 0 32 32" fill="none" xmlns="http://www.w3.org/2000/svg">
<circle cx="16" cy="16" r="16" fill="#524894"/>
<path fill-rule="evenodd" clip-rule="evenodd" d="M19.8459 13.5879H22.6667C22.6667 11.3231 21.3096 10 19.0104 10H12.9896C10.6904 10 9.33333 11.3231 9.33333 13.559V18.441C9.33333 20.6769 10.6904 22 12.9896 22H19.0104C21.3096 22 22.6667 20.6769 22.6667 18.441V18.233H19.8459C18.5368 18.233 17.4756 17.1983 17.4756 15.922C17.4756 14.6457 18.5368 13.611 19.8459 13.611V13.5879ZM19.8458 14.5816H22.1688C22.4437 14.5816 22.6666 14.7989 22.6666 15.067V16.754C22.6634 17.0207 22.4424 17.2362 22.1688 17.2393H19.8992C19.2364 17.248 18.6569 16.8056 18.5066 16.1762C18.4313 15.7856 18.537 15.3824 18.7953 15.0748C19.0536 14.7673 19.4381 14.5867 19.8458 14.5816ZM19.9464 16.3553H20.1657C20.4471 16.3553 20.6753 16.1329 20.6753 15.8585C20.6753 15.5841 20.4471 15.3616 20.1657 15.3616H19.9464C19.8118 15.3601 19.6822 15.4111 19.5864 15.5034C19.4907 15.5957 19.4368 15.7214 19.4368 15.8527C19.4368 16.1281 19.664 16.3522 19.9464 16.3553ZM12.4921 13.5879H16.255C16.5365 13.5879 16.7647 13.3654 16.7647 13.091C16.7647 12.8166 16.5365 12.5942 16.255 12.5942H12.4921C12.2129 12.5941 11.9857 12.8131 11.9824 13.0852C11.9824 13.3606 12.2097 13.5847 12.4921 13.5879Z" fill="white"/>
</svg>
